<?xml version="1.0" encoding="utf-8"?>
<!-- Generator: Adobe Illustrator 23.0.5, SVG Export Plug-In . SVG Version: 6.00 Build 0)  -->
<svg version="1.1" id="Layer_1" xmlns="http://www.w3.org/2000/svg" xmlns:xlink="http://www.w3.org/1999/xlink" x="0px" y="0px"
	 viewBox="0 0 28.6 30.5" style="enable-background:new 0 0 28.6 30.5;" xml:space="preserve">
<style type="text/css">
	.st0{clip-path:url(#SVGID_2_);fill:#272525;}
</style>
<g>
	<defs>
		<rect id="SVGID_1_" y="0" width="28.6" height="30.5"/>
	</defs>
	<clipPath id="SVGID_2_">
		<use xlink:href="#SVGID_1_"  style="overflow:visible;"/>
	</clipPath>
	<path class="st0" d="M3.7,7L3.4,7.2c0,0,0,0,0,0L2.6,7.9l0.1,0c-1.5,1.5-2.4,3.4-2.6,5.3h0c0,0.3-0.1,0.7,0,1c0,0.1,0,0.2,0,0.4
		l0,0.1c0,0.1,0,0.1,0,0.2c0,0.2,0,0.3,0.1,0.5c0,0.1,0,0.2,0,0.2c0,0.2,0.1,0.4,0.1,0.5l0,0c0.2,0.7,0.5,1.4,0.9,2.2
		C1.4,18.8,1.7,19.4,2,20l0.4,0.7c1.2,2.1,2.5,4.4,4.2,6.9l0,0.1c1.3,1.5,3,3,5.1,2.9c0.8-0.1,1.7-0.4,2.5-0.9
		c0.8,0.5,1.7,0.8,2.5,0.9c0.1,0,0.2,0,0.3,0c1.7,0,3.3-0.9,5-2.8l0,0c1.5-1.9,2.5-3.9,3.4-5.7c0.4-0.7,0.7-1.4,1.1-2
		c0.4-0.6,0.6-1.2,0.9-1.7c0.4-0.8,0.7-1.5,0.9-2.2l0,0c0.1-0.2,0.1-0.3,0.1-0.5c0-0.1,0-0.2,0-0.2c0-0.2,0-0.3,0.1-0.5
		c0-0.1,0-0.1,0-0.2l0-0.1c0-0.1,0-0.2,0-0.4c0-0.3,0-0.6,0-1c-0.2-1.9-1.1-3.8-2.6-5.3l0,0l-0.7-0.6c0,0,0,0,0,0L24.9,7l0,0
		c-1.2-0.9-2.7-1.4-4.2-1.4l-0.1,0c0,0-0.1,0-0.1,0c-1,0-2,0.2-2.9,0.6c-0.3,0.1-0.6,0.3-0.9,0.5c0.5-1.4,1.2-2.6,2.2-3.7
		c0.1-0.1,0.2-0.3,0.4-0.4L19.6,2l-0.4-0.4c-0.3-0.4-0.6-0.8-0.9-1.1L17.9,0l-0.5,0.5c-0.8,0.9-1.6,1.8-2.2,2.9c0,0,0,0,0,0
		c-1-1.7-2.8-2.7-4.7-2.7l-0.4,0L10,1C9.1,2.5,9,4.2,9.6,5.7c-0.5-0.1-1-0.2-1.5-0.2c0,0-0.1,0-0.1,0l-0.1,0C6.4,5.6,4.9,6.1,3.7,7
		L3.7,7z M17.8,1.9C17.9,2,17.9,2,17.8,1.9C17.9,2,17.9,2,17.8,1.9c-0.8,1-1.4,2.1-2,3.2c0,0,0-0.1,0-0.1
		C16.4,3.9,17.1,2.8,17.8,1.9 M10.9,2c1.3,0.1,2.5,0.9,3.2,2c0.2,0.3,0.3,0.7,0.4,1c0.2,0.8,0.2,1.6-0.1,2.4c0,0-0.1,0-0.1,0
		c0,0,0,0,0,0c-0.4,0-0.7-0.1-1-0.3C13,7.1,12.8,7,12.6,7c-0.1,0-0.2-0.1-0.3-0.1c-0.1,0-0.1,0-0.2-0.1c-0.1-0.1-0.2-0.1-0.3-0.2
		c0,0-0.1,0-0.1-0.1c-0.1,0-0.1-0.1-0.2-0.1c-0.2-0.2-0.3-0.4-0.5-0.6C10.5,4.7,10.4,3.2,10.9,2 M4.4,8.1C4.4,8.1,4.4,8.1,4.4,8.1
		c1-0.8,2.2-1.2,3.5-1.2c0,0,0.1,0,0.1,0c0,0,0,0,0.1,0c0.8,0,1.6,0.2,2.4,0.5c0.1,0.1,0.3,0.1,0.4,0.2c0.2,0.1,0.4,0.2,0.6,0.4
		l0.1,0.1c0.2,0.1,0.3,0.1,0.5,0.2c0.6,0.3,1.4,0.6,2.2,0.6l0,0l0,0c0.1,0,0.3,0,0.4,0l0,0.1l1.2-0.5c0.2-0.1,0.4-0.2,0.6-0.3
		C16.6,8.1,16.8,8,17,7.9l0.1-0.1c0.3-0.2,0.7-0.4,1-0.6c0.8-0.3,1.6-0.5,2.4-0.5c0,0,0,0,0.1,0c0,0,0.1,0,0.1,0
		c1.3,0,2.5,0.5,3.5,1.2c0,0,0,0,0,0c0,0,0.1,0.2,0.4,0.3c1.5,1.4,2.5,3.2,2.7,5c0,0.3,0,0.5,0,0.8c0,0.1,0,0.2,0,0.3l0,0.1
		c0,0.1,0,0.1,0,0.2c0,0.1,0,0.3-0.1,0.4c0,0.1,0,0.1,0,0.2c0,0.1-0.1,0.3-0.1,0.5c-0.2,0.6-0.4,1.3-0.8,2c-0.2,0.5-0.5,1-0.8,1.6
		c-0.4,0.7-0.7,1.3-1.1,2.1c-0.9,1.7-1.8,3.6-3.2,5.5c-1.4,1.6-2.9,2.4-4.2,2.3c-0.7,0-1.5-0.4-2.2-0.9L14.3,28l-0.4,0.3
		c-0.7,0.6-1.5,0.9-2.2,0.9c-1.2,0.1-2.5-0.6-4-2.4c-1.6-2.4-2.9-4.7-4.1-6.7l-0.4-0.7c-0.3-0.6-0.6-1.1-0.8-1.6
		c-0.4-0.7-0.6-1.4-0.8-2l0,0c0-0.1-0.1-0.3-0.1-0.4c0-0.1,0-0.1,0-0.2c0-0.1,0-0.3-0.1-0.4c0,0,0-0.1,0-0.1l0-0.1
		c0-0.1,0-0.2,0-0.3c0-0.2,0-0.5,0-0.8c0.2-1.8,1.1-3.5,2.7-5C4.3,8.3,4.4,8.1,4.4,8.1"/>
</g>
</svg>
