<?xml version="1.0" encoding="utf-8"?>
<!-- Generator: Adobe Illustrator 23.0.5, SVG Export Plug-In . SVG Version: 6.00 Build 0)  -->
<svg version="1.1" id="Layer_1" xmlns="http://www.w3.org/2000/svg" xmlns:xlink="http://www.w3.org/1999/xlink" x="0px" y="0px"
	 viewBox="0 0 35.2 28.5" style="enable-background:new 0 0 35.2 28.5;" xml:space="preserve">
<style type="text/css">
	.st0{clip-path:url(#SVGID_2_);fill:#272525;}
</style>
<g>
	<defs>
		<rect id="SVGID_1_" y="0" width="35.2" height="28.5"/>
	</defs>
	<clipPath id="SVGID_2_">
		<use xlink:href="#SVGID_1_"  style="overflow:visible;"/>
	</clipPath>
	<path class="st0" d="M19.5,0h-3.8h-0.6H0.6C0.3,0,0,0.3,0,0.6v23.1c0,0.3,0.3,0.6,0.6,0.6h14v3.5c0,0.4,0.5,0.8,0.8,0.5
		c0.4-0.3,0.8-0.6,1.2-1c0.3-0.2,0.6-0.5,0.9-0.7c0.1-0.1,0.2-0.1,0.3-0.2c0.1,0,0.1,0.1,0.2,0.1c0.3,0.3,0.6,0.5,0.8,0.7
		c0.4,0.4,0.9,0.7,1.3,1.1c0.2,0.2,0.5,0.1,0.6-0.1c0.1-0.1,0.2-0.3,0.2-0.5v-3.5h13.8c0.2,0,0.3-0.1,0.4-0.2c0,0,0,0,0,0
		c0,0,0,0,0,0c0.1-0.1,0.2-0.2,0.2-0.4V0.6c0-0.3-0.3-0.6-0.6-0.6H20.3H19.5z M14.6,23.1H1.1V1.2h13.4V23.1z M19.7,26.6
		c-0.6-0.5-1.2-0.9-1.7-1.4c-0.1-0.1-0.4-0.1-0.6,0c-0.6,0.5-1.2,1-1.8,1.4V1.2h0h3.8h0.2V26.6z M20.8,1.2h13.2v21.9H20.8V1.2z"/>
	<path class="st0" d="M3.7,7h7.9c0.5,0,0.5-0.8,0-0.8H3.7C3.2,6.2,3.2,7,3.7,7"/>
	<path class="st0" d="M3.7,10.4h7.9c0.5,0,0.5-0.8,0-0.8H3.7C3.2,9.6,3.2,10.4,3.7,10.4"/>
	<path class="st0" d="M3.7,13.8h7.9c0.5,0,0.5-0.8,0-0.8H3.7C3.2,13,3.2,13.8,3.7,13.8"/>
	<path class="st0" d="M3.7,17.2h7.9c0.5,0,0.5-0.8,0-0.8H3.7C3.2,16.4,3.2,17.2,3.7,17.2"/>
	<path class="st0" d="M31.6,6.2h-7.9c-0.5,0-0.5,0.8,0,0.8h7.9C32.1,7,32.1,6.2,31.6,6.2"/>
	<path class="st0" d="M31.6,9.6h-7.9c-0.5,0-0.5,0.8,0,0.8h7.9C32.1,10.4,32.1,9.6,31.6,9.6"/>
	<path class="st0" d="M31.6,13h-7.9c-0.5,0-0.5,0.8,0,0.8h7.9C32.1,13.8,32.1,13,31.6,13"/>
	<path class="st0" d="M31.6,16.4h-7.9c-0.5,0-0.5,0.8,0,0.8h7.9C32.1,17.2,32.1,16.4,31.6,16.4"/>
</g>
</svg>
