<?xml version="1.0" encoding="utf-8"?>
<!-- Generator: Adobe Illustrator 23.0.5, SVG Export Plug-In . SVG Version: 6.00 Build 0)  -->
<svg version="1.1" id="Layer_1" xmlns="http://www.w3.org/2000/svg" xmlns:xlink="http://www.w3.org/1999/xlink" x="0px" y="0px"
	 viewBox="0 0 38.4 36.6" style="enable-background:new 0 0 38.4 36.6;" xml:space="preserve">
<style type="text/css">
	.st0{clip-path:url(#SVGID_2_);fill:#272525;}
</style>
<g>
	<defs>
		<rect id="SVGID_1_" y="0" width="38.4" height="36.6"/>
	</defs>
	<clipPath id="SVGID_2_">
		<use xlink:href="#SVGID_1_"  style="overflow:visible;"/>
	</clipPath>
	<path class="st0" d="M15.5,12.6c0,0.2,0.2,0.4,0.4,0.4c0.2,0.1,0.4,0,0.6-0.1l1.5-1.2v7.5h-1.9c-0.2,0-0.3,0.1-0.4,0.2
		c-0.1,0.1-0.2,0.3-0.2,0.4v1.9c0,0.2,0.1,0.3,0.2,0.4c0.1,0.1,0.3,0.2,0.4,0.2H24c0.2,0,0.3-0.1,0.4-0.2c0.1-0.1,0.2-0.3,0.2-0.4
		v-1.9c0-0.2-0.1-0.3-0.2-0.4c-0.1-0.1-0.3-0.2-0.4-0.2h-1.9V7.9c0-0.2-0.1-0.3-0.2-0.4c-0.1-0.1-0.3-0.2-0.4-0.2H19
		c-0.1,0-0.2,0-0.3,0.1l-3.4,2.4c-0.2,0.1-0.3,0.4-0.2,0.6L15.5,12.6z M19,8h2.4v12H24v1.8h-7.8V20h2.5v-9.5l-2.5,2l-0.5-2.1L19,8z"
		/>
	<path class="st0" d="M0,30.1c0.1,0.2,0.3,0.4,0.5,0.4l5,0.4l0.2,4.6c0,0.2,0.1,0.4,0.3,0.5c0.1,0,0.1,0,0.2,0c0.1,0,0.3,0,0.4-0.1
		l9.3-8.3l0.4,1.2c0.2,0.6,0.7,0.9,1.2,0.9c0.4,0,0.8-0.2,1.1-0.6l1.6-2c0.1-0.2,0.3-0.3,0.5-0.3c0.1,0,0.3,0,0.5,0.2l1.9,1.7
		c0.3,0.3,0.6,0.4,1,0.4c0.2,0,0.5-0.1,0.7-0.2l6.7,7.4c0.1,0.1,0.3,0.2,0.4,0.2c0.1,0,0.1,0,0.2,0c0.2-0.1,0.4-0.3,0.4-0.5l0.5-4.5
		l5-0.5c0.2,0,0.4-0.2,0.5-0.4c0.1-0.2,0-0.4-0.1-0.6L30.1,21c0,0,0,0,0-0.1c0.1-0.2,0.3-0.3,0.5-0.3l2.5-0.6c0.5-0.1,0.9-0.4,1-0.9
		c0.1-0.4,0-0.9-0.4-1.3L31.9,16c-0.1-0.1-0.2-0.3-0.2-0.5c0-0.2,0.1-0.4,0.2-0.5l2-1.7c0.4-0.4,0.6-0.8,0.5-1.3
		c-0.1-0.4-0.4-0.8-1-1L31,10.2c-0.2-0.1-0.3-0.2-0.4-0.4c-0.1-0.2-0.1-0.4,0-0.6l0.9-2.4c0.2-0.5,0.2-0.9-0.1-1.3
		c-0.3-0.4-0.7-0.6-1.3-0.5l-2.6,0.4c-0.4,0.1-0.8-0.2-0.8-0.6l-0.3-2.6c-0.1-0.9-0.7-1.2-1.2-1.2c-0.3,0-0.6,0.1-0.9,0.3L22.3,3
		c-0.3,0.2-0.8,0.2-1-0.2l-1.4-2.2C19.6,0.2,19.2,0,18.7,0c-0.5,0-0.9,0.3-1.2,0.8l-1.1,2.3c-0.2,0.4-0.6,0.5-1,0.3l-2.3-1.2
		C12.6,1.9,12,2,11.6,2.4c-0.2,0.2-0.4,0.5-0.4,1.1l0.1,2.6c0,0.2-0.1,0.4-0.2,0.5c-0.1,0.1-0.3,0.2-0.5,0.2l-2.6,0
		c-0.5,0-1,0.2-1.2,0.6C6.6,7.7,6.7,8.2,6.9,8.7L8.2,11c0.1,0.2,0.1,0.4,0.1,0.6c-0.1,0.2-0.2,0.3-0.4,0.4l-2.3,1.2
		c-0.5,0.3-0.8,0.6-0.8,1.1c0,0.4,0.2,0.9,0.7,1.2l2.2,1.4C7.9,16.9,8,17,8,17.2c0,0.2,0,0.4-0.1,0.5l-1.5,2.1
		c-0.3,0.5-0.4,0.9-0.2,1.3c0.2,0.4,0.6,0.7,1.2,0.7l1,0.1l-8.2,7.4C0,29.6,0,29.9,0,30.1 M30.2,25.6c0,0,0.1-0.1,0.1-0.1
		c0.1-0.1,0.2-0.1,0.3-0.2c0.2-0.3,0.3-0.8,0.2-1.2l-0.2-0.8l6.2,6.9l-4.3,0.4c-0.3,0-0.5,0.2-0.5,0.5l-0.4,3.7l-6.2-6.8l0.5-2.3
		c0-0.1,0.1-0.2,0.1-0.2c0.2-0.1,0.3-0.1,0.5-0.1l2.5,0.7l0,0C29.4,26,29.9,25.9,30.2,25.6 M7.5,20.9c-0.2,0-0.2-0.1-0.3-0.1
		c0,0,0,0,0,0c0,0,0-0.1,0.1-0.2l1.5-2.1C8.9,18.3,9,18.2,9,18.1c0.1-0.3,0.2-0.7,0.1-1.1c-0.1-0.5-0.4-0.9-0.8-1.2l-2.2-1.4
		C6,14.4,6,14.4,6,14.3c0,0,0,0,0,0c0,0,0-0.1,0-0.1c0,0,0-0.1,0.2-0.2l1.2-0.6l1.1-0.6c0.4-0.2,0.8-0.6,0.9-1.1
		c0.1-0.5,0.1-0.9-0.1-1.4c0,0,0,0,0-0.1L7.9,8.2C7.8,8.1,7.8,8,7.8,7.9c0,0,0,0,0,0c0,0,0,0,0,0c0,0,0.1,0,0.2,0l0.7,0l2,0
		c0.5,0,1-0.2,1.3-0.6c0.2-0.2,0.3-0.4,0.4-0.6c0,0,0,0,0-0.1c0.1-0.2,0.1-0.4,0.1-0.7l-0.1-2.6c0-0.2,0-0.3,0.1-0.3
		c0,0,0.1,0,0.2,0.1l1.9,1L15,4.5c0,0,0.1,0,0.1,0c0.2,0.1,0.5,0.2,0.8,0.2c0.5,0,0.9-0.2,1.2-0.5c0.2-0.2,0.3-0.3,0.4-0.5l1.1-2.3
		c0,0,0-0.1,0.1-0.1c0-0.1,0.1-0.1,0.1-0.1c0,0,0,0,0,0c0,0,0,0,0,0c0,0,0,0,0,0c0,0,0.1,0.1,0.1,0.1l1,1.5l0.5,0.7
		c0.1,0.2,0.3,0.3,0.4,0.4c0.3,0.2,0.7,0.4,1.1,0.4c0.1,0,0.2,0,0.3,0C22.5,4.2,22.7,4,23,3.9l0.8-0.6L25,2.3
		c0.1-0.1,0.2-0.1,0.2-0.1c0,0,0,0,0,0c0,0,0.1,0.1,0.1,0.3L25.6,5c0,0.4,0.2,0.7,0.4,1c0.1,0.1,0.2,0.2,0.3,0.3
		c0.4,0.3,0.9,0.4,1.4,0.3l2.6-0.4c0.1,0,0.3,0,0.3,0c0,0,0,0,0,0c0,0,0,0.1,0,0.2l-1,2.4c0,0.1,0,0.1-0.1,0.2c0,0,0,0,0,0
		c0,0,0,0,0,0c-0.1,0.3-0.1,0.7,0,1c0,0.1,0,0.1,0.1,0.2c0,0.1,0.1,0.2,0.1,0.2c0.2,0.3,0.5,0.6,0.9,0.7l1.8,0.6l0.6,0.2
		c0.1,0,0.2,0.1,0.2,0.1c0,0,0,0,0,0c0,0,0,0.1-0.1,0.1c0,0-0.1,0.1-0.1,0.1L32,13.5l-0.7,0.6c-0.4,0.3-0.6,0.8-0.6,1.3
		c0,0.5,0.2,1,0.5,1.3l1.8,1.9c0.1,0.1,0.1,0.2,0.1,0.2v0c0,0,0,0,0,0c0,0,0,0,0,0h0c0,0-0.1,0.1-0.2,0.1l-2.5,0.6
		c-0.5,0.1-0.9,0.4-1.2,0.8c-0.1,0.1-0.1,0.2-0.1,0.3c0,0,0,0,0,0c0,0.1-0.1,0.2-0.1,0.3v0c-0.2,0.4-0.3,0.7-0.2,1l0.7,2.5v0
		l-2.5-0.6c-0.1,0-0.2,0-0.3,0c-0.1,0-0.1,0-0.2,0c-0.1,0-0.2,0-0.3,0c0,0,0,0-0.1,0c-0.1,0-0.2,0-0.2,0.1c0,0-0.1,0-0.1,0
		c0,0-0.1,0-0.1,0.1c-0.1,0-0.1,0.1-0.2,0.1c0,0,0,0-0.1,0c-0.1,0.1-0.2,0.1-0.2,0.2h0c-0.4,0.3-0.7,0.7-0.8,1.1L24,27.7
		c0,0.1,0,0.2,0,0.3c0,0,0,0-0.1,0c0,0,0,0,0,0c0,0-0.1,0-0.1-0.1l-1.9-1.7c-0.1-0.1-0.3-0.2-0.5-0.3c-0.2-0.1-0.5-0.2-0.7-0.2
		c-0.3,0-0.6,0.1-0.9,0.2c-0.1,0.1-0.2,0.1-0.3,0.2c-0.1,0.1-0.2,0.2-0.3,0.3l-1.6,2c0,0,0,0-0.1,0.1c0,0,0,0-0.1,0.1c0,0,0,0,0,0
		c0,0,0,0,0,0c0,0-0.1,0-0.1,0c0,0,0,0,0,0l0,0c0,0-0.1-0.1-0.1-0.2l-0.6-1.6c0.2-0.2,0.2-0.4,0.1-0.6l0-0.1c-0.2-0.5-0.5-0.8-1-1
		c-0.2-0.1-0.3-0.1-0.5-0.1h0c-0.1,0-0.2-0.1-0.3-0.1c0,0,0,0,0,0c-0.1,0-0.2,0-0.3,0c-0.1,0-0.2,0-0.4,0c0,0,0,0,0,0
		c-0.1,0-0.2,0.1-0.3,0.1c0,0,0,0,0,0l-2.3,1c0,0,0,0,0-0.1l0.3-2.6v0c0.1-0.5-0.1-1-0.4-1.4c-0.3-0.4-0.7-0.6-1.2-0.6h0
		c-0.1,0-0.1,0-0.2-0.1c-0.1,0-0.2,0-0.3-0.1L9.2,21L7.5,20.9z M9.7,22.4l0.6-0.1c0.1,0,0.1,0.1,0.1,0.1c0.1,0.1,0.2,0.3,0.1,0.5
		l-0.3,2.6c-0.1,0.5,0,0.9,0.3,1.1c0.2,0.2,0.4,0.3,0.7,0.4c0.3,0.2,0.8,0.2,1.2,0l2.4-1c0.1,0,0.2-0.1,0.3-0.1
		c0.1,0.1,0.2,0.2,0.3,0.4l0,0.1l-8.7,7.8l-0.1-3.9c0-0.3-0.2-0.5-0.5-0.5l-4.2-0.3L9.7,22.4z"/>
</g>
</svg>
